<svg width="20" height="17" viewBox="0 0 20 17" fill="none" xmlns="http://www.w3.org/2000/svg">
<path fill-rule="evenodd" clip-rule="evenodd" d="M12.7201 4.89736C12.8851 5.03555 13.0936 5.11112 13.3088 5.11076C13.4501 5.11551 13.5906 5.08798 13.7197 5.03027C13.8487 4.97256 13.9629 4.88619 14.0536 4.77773C14.1443 4.66926 14.209 4.54156 14.2429 4.40431C14.2768 4.26707 14.279 4.12391 14.2493 3.9857C14.1145 3.33962 13.9572 2.69808 13.7999 2.05697L13.7802 1.97661C13.4717 0.718731 12.6326 0.0337919 11.3373 0.0141149C10.1729 -0.00517638 9.0087 -0.00469268 7.84467 0.0155631C7.28728 -0.000325755 6.74248 0.183028 6.30811 0.532696C5.87374 0.882365 5.57826 1.37544 5.47474 1.92337C5.31718 2.56372 5.17309 3.2078 5.02906 3.85161L5.02709 3.86041C4.88993 4.47618 5.16049 4.97186 5.69061 5.09311C6.24649 5.22043 6.69993 4.89923 6.85416 4.26262C6.88667 4.12823 6.91962 3.99391 6.95258 3.8596C7.06861 3.38661 7.18466 2.91359 7.28157 2.43671C7.28854 2.3556 7.31193 2.27676 7.35031 2.20497C7.38869 2.13318 7.44127 2.06994 7.50484 2.01909C7.56841 1.96824 7.64165 1.93084 7.72011 1.90917C7.79858 1.88749 7.88063 1.88198 7.96129 1.89299C9.07536 1.89781 10.1895 1.89781 11.3038 1.89299C11.3815 1.88306 11.4603 1.88894 11.5357 1.91024C11.611 1.93155 11.6813 1.96785 11.7422 2.01698C11.8032 2.06611 11.8536 2.12705 11.8905 2.19614C11.9273 2.26523 11.9498 2.34106 11.9566 2.41906C12.081 3.03231 12.2307 3.64067 12.3804 4.24875C12.3891 4.28424 12.3978 4.31973 12.4066 4.35522C12.444 4.56719 12.555 4.75916 12.7201 4.89736ZM9.62169 16.4873H2.82355C1.01934 16.4873 0.000763876 15.4727 0.000763876 13.6804V5.82781C-0.0151176 5.18161 0.217152 4.55387 0.649812 4.07364C1.08247 3.5934 1.68266 3.29715 2.32701 3.24577C2.45379 3.22275 2.58389 3.2252 2.70972 3.25298C2.83555 3.28076 2.95459 3.33331 3.0599 3.40756C3.16521 3.48182 3.25469 3.57629 3.32311 3.68549C3.39154 3.79468 3.43753 3.91641 3.45843 4.04356C3.53453 4.60262 3.17774 5.03117 2.56573 5.11625C2.06599 5.1857 1.88282 5.39694 1.88253 5.92359C1.88041 8.54121 1.87964 11.1587 1.88022 13.7762C1.88022 14.3879 2.09956 14.6049 2.72344 14.6049C6.2165 14.6049 9.70946 14.6042 13.2023 14.6026C13.5695 14.6026 13.9367 14.6032 14.304 14.6038H14.304H14.3044C15.0388 14.6049 15.7732 14.6061 16.5075 14.6026C17.1548 14.5991 17.3562 14.3917 17.3568 13.742C17.3591 11.1377 17.3591 8.53263 17.3568 5.92677C17.3568 5.38825 17.1693 5.17991 16.64 5.11162C16.5148 5.10437 16.3923 5.07163 16.2802 5.01539C16.168 4.95915 16.0685 4.88061 15.9878 4.78457C15.9071 4.68853 15.8468 4.57701 15.8107 4.45686C15.7745 4.33671 15.7633 4.21044 15.7777 4.08581C15.8037 3.84011 15.9243 3.61419 16.114 3.45588C16.3037 3.29757 16.5476 3.2193 16.794 3.23767C17.4339 3.25803 18.042 3.52144 18.4946 3.97428C18.9471 4.42713 19.2102 5.03539 19.2302 5.67531C19.2495 8.4681 19.2495 11.261 19.2302 14.054C19.2187 14.6621 18.9822 15.2445 18.5665 15.6885C18.1508 16.1326 17.5853 16.4068 16.9792 16.4583C16.43 16.5003 15.8784 16.4971 15.327 16.4938H15.3269H15.3269C15.1519 16.4928 14.977 16.4918 14.8023 16.4922C13.6511 16.4947 12.5 16.4939 11.3489 16.493H11.3469C10.771 16.4926 10.195 16.4922 9.61908 16.4922L9.62169 16.4873ZM5.95134 9.39052C5.95389 8.42233 6.33659 7.49387 7.01702 6.8051C7.69746 6.11633 8.62119 5.72235 9.58928 5.70801C10.5642 5.70537 11.5005 6.0885 12.1939 6.77377C12.8873 7.45903 13.2814 8.39079 13.2903 9.36563C13.2879 10.3403 12.9003 11.2746 12.2118 11.9646C11.5234 12.6546 10.59 13.0444 9.61532 13.049C8.64678 13.0417 7.71992 12.654 7.03453 11.9697C6.34914 11.2853 5.96012 10.359 5.95134 9.39052ZM9.62632 7.58746C9.15236 7.59025 8.69852 7.77938 8.36283 8.11399C8.02715 8.44859 7.83656 8.9018 7.83223 9.37575C7.83755 9.84331 8.02399 10.2906 8.35232 10.6235C8.68066 10.9564 9.1253 11.1491 9.59275 11.1609C10.0667 11.1612 10.522 10.976 10.861 10.6448C11.2001 10.3136 11.396 9.8629 11.4068 9.38907C11.4055 8.9154 11.2182 8.46119 10.8853 8.12423C10.5524 7.78727 10.1005 7.59451 9.62689 7.58746H9.62632Z" fill="#2787BD"/>
</svg>
